<svg width="33" height="33" viewBox="0 0 33 33" fill="none" xmlns="http://www.w3.org/2000/svg">
<path fill-rule="evenodd" clip-rule="evenodd" d="M16.3308 33C25.35 33 32.6615 25.7213 32.6615 16.7426C32.6615 7.76396 25.35 0 16.3308 0C7.31153 0 0 7.76396 0 16.7426C0 25.7213 7.31153 33 16.3308 33ZM17.0621 29.11C24.7352 29.11 30.2242 23.6457 30.2242 16.0071C30.2242 8.36849 24.7352 2.90413 17.0621 2.90413C9.38902 2.90413 3.89999 8.36849 3.89999 16.0071C3.89999 23.6457 9.38902 29.11 17.0621 29.11Z" fill="#FF7900"/>
<path d="M23.0644 13.5992H19.5104V10.0452C19.5104 9.57389 19.3232 9.12191 18.99 8.78866C18.6567 8.45541 18.2047 8.26819 17.7334 8.26819C17.2622 8.26819 16.8102 8.45541 16.4769 8.78866C16.1437 9.12191 15.9565 9.57389 15.9565 10.0452L16.0195 13.5992H12.4025C11.9312 13.5992 11.4792 13.7864 11.146 14.1196C10.8127 14.4529 10.6255 14.9049 10.6255 15.3761C10.6255 15.8474 10.8127 16.2994 11.146 16.6327C11.4792 16.9659 11.9312 17.1531 12.4025 17.1531L16.0195 17.09L15.9565 20.7071C15.9565 21.1784 16.1437 21.6304 16.4769 21.9636C16.8102 22.2969 17.2622 22.4841 17.7334 22.4841C18.2047 22.4841 18.6567 22.2969 18.99 21.9636C19.3232 21.6304 19.5104 21.1784 19.5104 20.7071V17.09L23.0644 17.1531C23.5357 17.1531 23.9877 16.9659 24.3209 16.6327C24.6542 16.2994 24.8414 15.8474 24.8414 15.3761C24.8414 14.9049 24.6542 14.4529 24.3209 14.1196C23.9877 13.7864 23.5357 13.5992 23.0644 13.5992Z" fill="#FF7900"/>
</svg>
